<svg xmlns="http://www.w3.org/2000/svg"  viewBox="0 0 1366 766" width="1920" height="1080">

    <g id="layer1" transform="translate(0 -284.36)">
        <path id="path3775" d="m-153.91 370.55c32.321-6.1563 190.85-52.329 381.69-15.391 190.85 36.938 271.4 211.86 410.93 263.18 63.358 23.304 245.6 3.4181 371.38-40.219 140.04-48.584 228.86-150.63 228.86-150.63s-95.423 149.29-170.84 213.93c-75.49 64.65-244.86 178.04-318.67 209.32-68.2 28.91-150.46 44.5-254.2 13.53-104.22-31.1-198.28-156.52-235.23-199.76-72.33-84.64-118.5-113.89-156.98-155.44-38.479-41.56-230.86-46.17-230.86-46.17z"  fill="#333333" opacity="0.08" transform="scale(1.2,1)"/>
        <path id="path3791" d="m49.251 59.657c32.32-6.157 190.85-52.329 381.69-15.391 190.85 36.938 271.4 211.85 410.94 263.18 63.358 23.304 245.6 3.4181 371.38-40.219 140.04-48.584 228.86-150.63 228.86-150.63s-95.423 149.29-170.84 213.93c-75.415 64.641-244.78 178.03-318.59 209.31-68.203 28.904-150.46 44.497-254.2 13.532-104.22-31.1-198.28-156.51-235.23-199.75-72.33-84.65-118.51-113.89-156.98-155.45-38.48-41.55-230.86-46.17-230.86-46.17z" fill="#222222" opacity="0.08" transform="scale(2,1)" />
        <path id="path3787"   d="m133.94 422.88c32.321-6.1563 190.85-52.329 381.69-15.391 190.85 36.938 271.4 211.86 410.93 263.18 63.358 23.304 245.6 3.4181 371.38-40.219 140.04-48.584 228.86-150.63 228.86-150.63s-95.423 149.29-170.84 213.93c-75.49 64.65-244.85 178.04-318.66 209.32-68.2 28.91-150.46 44.5-254.2 13.53-104.22-31.11-198.28-156.52-235.23-199.76-72.33-84.65-118.51-113.89-156.98-155.44-38.481-41.56-230.87-46.18-230.87-46.18z" fill="#222222" opacity="0.08" transform="translate(-400,-100),scale(1.2,1.2)"/>

        <path id="path3787"   d="m133.94 422.88c32.321-6.1563 190.85-52.329 381.69-15.391 190.85 36.938 271.4 211.86 410.93 263.18 63.358 23.304 245.6 3.4181 371.38-40.219 140.04-48.584 228.86-150.63 228.86-150.63s-95.423 149.29-170.84 213.93c-75.49 64.65-244.85 178.04-318.66 209.32-68.2 28.91-150.46 44.5-254.2 13.53-104.22-31.11-198.28-156.52-235.23-199.76-72.33-84.65-118.51-113.89-156.98-155.44-38.481-41.56-230.87-46.18-230.87-46.18z" fill="#222222" opacity="0.06" transform="translate(200,-300),scale(1.2,1.2)"/>
        <path id="path3787"   d="m133.94 422.88c32.321-6.1563 190.85-52.329 381.69-15.391 190.85 36.938 271.4 211.86 410.93 263.18 63.358 23.304 245.6 3.4181 371.38-40.219 140.04-48.584 228.86-150.63 228.86-150.63s-95.423 149.29-170.84 213.93c-75.49 64.65-244.85 178.04-318.66 209.32-68.2 28.91-150.46 44.5-254.2 13.53-104.22-31.11-198.28-156.52-235.23-199.76-72.33-84.65-118.51-113.89-156.98-155.44-38.481-41.56-230.87-46.18-230.87-46.18z" fill="#222222" opacity="0.08" transform="translate(200,-300),scale(-2,-1.2)"/>
        <path id="path3787"   d="m-333.94 722.88c32.321-6.1563 190.85-52.329 381.69-15.391 190.85 36.938 271.4 211.86 410.93 263.18 63.358 23.304 245.6 3.4181 371.38-40.219 140.04-48.584 228.86-150.63 228.86-150.63s-95.423 149.29-170.84 213.93c-75.49 64.65-244.85 178.04-318.66 209.32-68.2 28.91-150.46 44.5-254.2 13.53-104.22-31.11-198.28-156.52-235.23-199.76-72.33-84.65-118.51-113.89-156.98-155.44-38.481-41.56-230.87-46.18-230.87-46.18z" transform="scale(1,1)" fill="#222222" opacity="0.06"/>
        <path id="path3795"  d="m1385.2 423.25-592.57 361.68 597.17-203.16z" transform="translate(0 284.36)" fill="#222222" opacity="0.06"/>
        <path id="path3807" d="m1308.2 779.95-592.53 361.65 597.13-203.13z" fill="#222222" opacity="0.1" />
        <path id="path3811"  d="m1343.6 816.88-592.53 361.72 597.13-203.19z" fill="#222222" opacity="0.05" />
        <path id="path3815" d="m1408.3 832.27-592.59 361.73 597.19-203.2z" fill="#222222" opacity="0.06"/>
        <path id="path3819" style="fill:url(#linearGradient3813)" d="m1443.7 858.44-592.59 361.66 597.19-203.1z" fill="#222222" opacity="0.07"/>

    </g>

</svg>